ground reactions
version=1
nRows=66
nColumns=19
inDegrees=no
endheader
time	ground_force_l_vx	ground_force_l_vy	ground_force_l_vz	ground_force_l_px	ground_force_l_py	ground_force_l_pz	ground_torque_l_x	ground_torque_l_y	ground_torque_l_z	ground_force_r_vx	ground_force_r_vy	ground_force_r_vz	ground_force_r_px	ground_force_r_py	ground_force_r_pz	ground_torque_r_x	ground_torque_r_y	ground_torque_r_z
0.260000	40.188776	284.224773	10.636970	1.005053	0.000000	-0.546185	0.000000	-1.288907	0.000000	0.106059	0.607724	-0.083154	-0.021262	0.000000	-0.005049	0.000000	-0.001176	0.000000
0.260500	45.047361	318.389624	11.949038	1.004402	0.000000	-0.546121	0.000000	-1.437106	0.000000	0.128938	0.732753	-0.102032	-0.029399	0.000000	-0.005291	0.000000	-0.001371	0.000000
0.261000	50.006924	353.179921	13.299582	1.003736	0.000000	-0.546056	0.000000	-1.585105	0.000000	0.156678	0.882840	-0.125126	-0.037764	0.000000	-0.005421	0.000000	-0.001591	0.000000
0.261500	54.956737	387.793499	14.661610	1.003059	0.000000	-0.545991	0.000000	-1.728635	0.000000	0.190157	1.062232	-0.153125	-0.046151	0.000000	-0.005419	0.000000	-0.001841	0.000000
0.262000	59.814386	421.632868	16.014826	1.002372	0.000000	-0.545926	0.000000	-1.864531	0.000000	0.230284	1.275321	-0.186637	-0.054321	0.000000	-0.005269	0.000000	-0.002123	0.000000
0.262500	64.519577	454.260740	17.344089	1.001677	0.000000	-0.545860	0.000000	-1.990505	0.000000	0.278013	1.526678	-0.226188	-0.062008	0.000000	-0.004953	0.000000	-0.002440	0.000000
0.263000	69.029421	485.366179	18.638253	1.000976	0.000000	-0.545795	0.000000	-2.104974	0.000000	0.334340	1.821061	-0.272221	-0.068920	0.000000	-0.004459	0.000000	-0.002795	0.000000
0.263500	73.314793	514.738374	19.889287	1.000269	0.000000	-0.545730	0.000000	-2.206921	0.000000	0.400304	2.163419	-0.325093	-0.074739	0.000000	-0.003776	0.000000	-0.003192	0.000000
0.264000	77.357460	542.245955	21.091591	0.999559	0.000000	-0.545667	0.000000	-2.295788	0.000000	0.476984	2.558871	-0.385066	-0.079129	0.000000	-0.002895	0.000000	-0.003633	0.000000
0.264500	81.147795	567.820423	22.241467	0.998847	0.000000	-0.545604	0.000000	-2.371383	0.000000	0.565491	3.012687	-0.452300	-0.081740	0.000000	-0.001812	0.000000	-0.004123	0.000000
0.265000	84.682921	591.442705	23.336697	0.998134	0.000000	-0.545543	0.000000	-2.433807	0.000000	0.666959	3.530247	-0.526840	-0.082212	0.000000	-0.000530	0.000000	-0.004663	0.000000
0.265500	87.965198	613.132151	24.376214	0.997421	0.000000	-0.545484	0.000000	-2.483390	0.000000	0.782536	4.117005	-0.608612	-0.080184	-0.000000	0.000945	0.000000	-0.005256	0.000000
0.266000	91.000986	632.937467	25.359832	0.996708	0.000000	-0.545426	0.000000	-2.520638	0.000000	0.913371	4.778439	-0.697405	-0.075301	-0.000000	0.002602	0.000000	-0.005903	0.000000
0.266500	93.799614	650.929236	26.288036	0.995996	0.000000	-0.545371	0.000000	-2.546190	0.000000	1.060597	5.520003	-0.792870	-0.067221	-0.000000	0.004423	0.000000	-0.006605	0.000000
0.267000	96.372549	667.193748	27.161805	0.995287	0.000000	-0.545317	0.000000	-2.560776	0.000000	1.225323	6.347071	-0.894507	-0.055623	-0.000000	0.006383	0.000000	-0.007361	0.000000
0.267500	98.732699	681.827942	27.982482	0.994579	0.000000	-0.545266	0.000000	-2.565191	0.000000	1.408611	7.264886	-1.001663	-0.040215	-0.000000	0.008450	0.000000	-0.008166	0.000000
0.268000	100.893857	694.935281	28.751656	0.993874	0.000000	-0.545218	0.000000	-2.560263	0.000000	1.611467	8.278499	-1.113523	-0.020746	-0.000000	0.010586	0.000000	-0.009017	0.000000
0.268500	102.870251	706.622423	29.471080	0.993172	0.000000	-0.545171	0.000000	-2.546839	0.000000	1.834820	9.392720	-1.229110	0.002991	-0.000000	0.012747	0.000000	-0.009904	0.000000
0.269000	104.676182	716.996582	30.142601	0.992473	0.000000	-0.545128	0.000000	-2.525762	0.000000	2.079510	10.612065	-1.347288	0.031147	-0.000000	0.014882	0.000000	-0.010813	0.000000
0.269500	106.325746	726.163453	30.768107	0.991777	0.000000	-0.545087	0.000000	-2.497859	0.000000	2.346269	11.940702	-1.466760	0.063811	-0.000000	0.016933	0.000000	-0.011728	0.000000
0.270000	107.832621	734.225636	31.349486	0.991083	0.000000	-0.545049	0.000000	-2.463933	0.000000	2.635713	13.382410	-1.586075	0.101008	-0.000000	0.018838	0.000000	-0.012624	0.000000
0.270500	109.209909	741.281473	31.888598	0.990393	0.000000	-0.545013	0.000000	-2.424752	0.000000	2.948318	14.940537	-1.703638	0.142689	-0.000000	0.020531	0.000000	-0.013471	0.000000
0.271000	110.470022	747.424215	32.387250	0.989705	0.000000	-0.544980	0.000000	-2.381045	0.000000	3.284419	16.617962	-1.817718	0.188731	-0.000000	0.021941	0.000000	-0.014229	0.000000
0.271500	111.624614	752.741484	32.847184	0.989020	0.000000	-0.544950	0.000000	-2.333498	0.000000	3.644191	18.417071	-1.926463	0.238933	-0.000000	0.022995	0.000000	-0.014849	0.000000
0.272000	112.684531	757.314958	33.270067	0.988338	0.000000	-0.544922	0.000000	-2.282754	0.000000	4.027640	20.339729	-2.027917	0.293022	-0.000000	0.023620	0.000000	-0.015268	0.000000
0.272500	113.659800	761.220242	33.657487	0.987659	0.000000	-0.544898	0.000000	-2.229407	0.000000	4.434602	22.387268	-2.120036	0.350652	-0.000000	0.023742	0.000000	-0.015414	0.000000
0.273000	114.559628	764.526881	34.010947	0.986982	0.000000	-0.544875	0.000000	-2.174006	0.000000	4.864727	24.560478	-2.200710	0.411407	-0.000000	0.023290	0.000000	-0.015196	0.000000
0.273500	115.392418	767.298488	34.331870	0.986307	0.000000	-0.544856	0.000000	-2.117056	0.000000	5.317484	26.859603	-2.267783	0.474815	-0.000000	0.022198	0.000000	-0.014508	0.000000
0.274000	116.165801	769.592952	34.621601	0.985634	0.000000	-0.544839	0.000000	-2.059015	0.000000	5.792155	29.284352	-2.319080	0.540352	-0.000000	0.020402	0.000000	-0.013224	0.000000
0.274500	116.886670	771.462713	34.881408	0.984964	0.000000	-0.544824	0.000000	-2.000301	0.000000	6.287833	31.833909	-2.352431	0.607454	-0.000000	0.017849	0.000000	-0.011198	0.000000
0.275000	117.561219	772.955069	35.112489	0.984296	0.000000	-0.544812	0.000000	-1.941291	0.000000	6.803429	34.506952	-2.365693	0.675531	-0.000000	0.014491	0.000000	-0.008265	0.000000
0.275500	118.194995	774.112513	35.315977	0.983629	0.000000	-0.544803	0.000000	-1.882324	0.000000	7.337674	37.301681	-2.356781	0.743980	-0.000000	0.010292	0.000000	-0.004233	0.000000
0.276000	118.792942	774.973081	35.492944	0.982965	0.000000	-0.544795	0.000000	-1.823701	0.000000	7.889124	40.215844	-2.323688	0.812195	-0.000000	0.005225	0.000000	0.001107	0.000000
0.276500	119.359447	775.570704	35.644408	0.982303	0.000000	-0.544790	0.000000	-1.765694	0.000000	8.456166	43.246775	-2.264512	0.879587	0.000000	-0.000723	0.000000	0.007988	0.000000
0.277000	119.898389	775.935557	35.771336	0.981643	0.000000	-0.544787	0.000000	-1.708539	0.000000	9.037034	46.391431	-2.177481	0.945589	0.000000	-0.007555	0.000000	0.016662	0.000000
0.277500	120.413184	776.094388	35.874654	0.980985	0.000000	-0.544786	0.000000	-1.652447	0.000000	9.629812	49.646433	-2.060971	1.009673	0.000000	-0.015260	0.000000	0.027395	0.000000
0.278000	120.906829	776.070846	35.955245	0.980330	0.000000	-0.544788	0.000000	-1.597598	0.000000	10.232450	53.008108	-1.913531	1.071354	0.000000	-0.023817	0.000000	0.040466	0.000000
0.278500	121.381942	775.885777	36.013960	0.979676	0.000000	-0.544791	0.000000	-1.544152	0.000000	10.842776	56.472535	-1.733897	1.130204	0.000000	-0.033191	0.000000	0.056154	0.000000
0.279000	121.840804	775.557514	36.051618	0.979025	0.000000	-0.544796	0.000000	-1.492243	0.000000	11.458511	60.035584	-1.521010	1.185850	0.000000	-0.043339	0.000000	0.074737	0.000000
0.279500	122.285389	775.102136	36.069011	0.978376	0.000000	-0.544803	0.000000	-1.441984	0.000000	12.077280	63.692962	-1.274025	1.237986	0.000000	-0.054205	0.000000	0.096477	0.000000
0.280000	122.717403	774.533710	36.066908	0.977729	0.000000	-0.544812	0.000000	-1.393472	0.000000	12.696630	67.440254	-0.992327	1.286370	0.000000	-0.065728	0.000000	0.121615	0.000000
0.280500	123.138309	773.864515	36.046058	0.977085	0.000000	-0.544822	0.000000	-1.346784	0.000000	13.314042	71.272959	-0.675531	1.330825	0.000000	-0.077838	0.000000	0.150361	0.000000
0.281000	123.549361	773.105245	36.007192	0.976444	0.000000	-0.544834	0.000000	-1.301981	0.000000	13.926949	75.186529	-0.323494	1.371243	0.000000	-0.090458	0.000000	0.182888	0.000000
0.281500	123.951622	772.265187	35.951025	0.975805	0.000000	-0.544847	0.000000	-1.259110	0.000000	14.532748	79.176401	0.063691	1.407575	0.000000	-0.103508	0.000000	0.219327	0.000000
0.282000	124.345990	771.352389	35.878260	0.975168	0.000000	-0.544862	0.000000	-1.218204	0.000000	15.128814	83.238024	0.485692	1.439831	0.000000	-0.116906	0.000000	0.259766	0.000000
0.282500	124.733219	770.373811	35.789588	0.974535	0.000000	-0.544878	0.000000	-1.179285	0.000000	15.712516	87.366889	0.941945	1.468078	0.000000	-0.130567	0.000000	0.304248	0.000000
0.283000	125.113935	769.335451	35.685690	0.973904	0.000000	-0.544896	0.000000	-1.142363	0.000000	16.281229	91.558546	1.431657	1.492431	0.000000	-0.144406	0.000000	0.352774	0.000000
0.283500	125.488653	768.242465	35.567240	0.973276	0.000000	-0.544914	0.000000	-1.107438	0.000000	16.832345	95.808626	1.953821	1.513045	0.000000	-0.158341	0.000000	0.405302	0.000000
0.284000	125.857791	767.099278	35.434902	0.972650	0.000000	-0.544933	0.000000	-1.074500	0.000000	17.363287	100.112852	2.507219	1.530116	0.000000	-0.172290	0.000000	0.461752	0.000000
0.284500	126.221682	765.909665	35.289335	0.972028	0.000000	-0.544954	0.000000	-1.043531	0.000000	17.871517	104.467053	3.090442	1.543867	0.000000	-0.186178	0.000000	0.522011	0.000000
0.285000	126.580588	764.676846	35.131192	0.971408	0.000000	-0.544975	0.000000	-1.014507	0.000000	18.354551	108.867166	3.701900	1.554543	0.000000	-0.199931	0.000000	0.585930	0.000000
0.285500	126.934704	763.403548	34.961120	0.970791	0.000000	-0.544997	0.000000	-0.987396	0.000000	18.809962	113.309247	4.339840	1.562410	0.000000	-0.213483	0.000000	0.653337	0.000000
0.286000	127.284172	762.092075	34.779761	0.970177	0.000000	-0.545020	0.000000	-0.962158	0.000000	19.235391	117.789466	5.002361	1.567739	0.000000	-0.226772	0.000000	0.724032	0.000000
0.286500	127.629085	760.744360	34.587753	0.969565	0.000000	-0.545043	0.000000	-0.938750	0.000000	19.628555	122.304110	5.687430	1.570809	0.000000	-0.239743	0.000000	0.797794	0.000000
0.287000	127.969495	759.362018	34.385726	0.968956	0.000000	-0.545067	0.000000	-0.917123	0.000000	19.987255	126.849583	6.392901	1.571898	0.000000	-0.252347	0.000000	0.874385	0.000000
0.287500	128.305420	757.946384	34.174309	0.968349	0.000000	-0.545090	0.000000	-0.897224	0.000000	20.309376	131.422394	7.116532	1.571277	0.000000	-0.264544	0.000000	0.953550	0.000000
0.288000	128.636845	756.498557	33.954122	0.967745	0.000000	-0.545115	0.000000	-0.878994	0.000000	20.592899	136.019160	7.856004	1.569208	0.000000	-0.276297	0.000000	1.035023	0.000000
0.288500	128.963729	755.019424	33.725782	0.967144	0.000000	-0.545139	0.000000	-0.862374	0.000000	20.835902	140.636596	8.608935	1.565939	0.000000	-0.287579	0.000000	1.118525	0.000000
0.289000	129.286008	753.509696	33.489899	0.966544	0.000000	-0.545163	0.000000	-0.847299	0.000000	21.036562	145.271510	9.372896	1.561702	0.000000	-0.298367	0.000000	1.203770	0.000000
0.289500	129.603598	751.969931	33.247075	0.965947	0.000000	-0.545187	0.000000	-0.833702	0.000000	21.193164	149.920799	10.145432	1.556710	0.000000	-0.308647	0.000000	1.290465	0.000000
0.290000	129.916400	750.400554	32.997907	0.965352	0.000000	-0.545211	0.000000	-0.821516	0.000000	21.304098	154.581439	10.924071	1.551156	0.000000	-0.318407	0.000000	1.378312	0.000000
0.290500	130.224296	748.801875	32.742984	0.964758	0.000000	-0.545234	0.000000	-0.810669	0.000000	21.367865	159.250486	11.706343	1.545213	0.000000	-0.327644	0.000000	1.467009	0.000000
0.291000	130.527160	747.174109	32.482885	0.964167	0.000000	-0.545257	0.000000	-0.801090	0.000000	21.383078	163.925067	12.489791	1.539029	0.000000	-0.336356	0.000000	1.556251	0.000000
0.291500	130.824853	745.517388	32.218180	0.963578	0.000000	-0.545280	0.000000	-0.792706	0.000000	21.348463	168.602382	13.271981	1.532735	0.000000	-0.344549	0.000000	1.645732	0.000000
0.292000	131.117228	743.831773	31.949430	0.962990	0.000000	-0.545302	0.000000	-0.785443	0.000000	21.262864	173.279697	14.050517	1.526436	0.000000	-0.352229	0.000000	1.735148	0.000000
0.292500	131.404127	742.117266	31.677185	0.962404	0.000000	-0.545323	0.000000	-0.779226	0.000000	21.125238	177.954347	14.823050	1.520221	0.000000	-0.359408	0.000000	1.824192	0.000000
